{"asset":{"version":"2.0","generator":"Blockbench 4.12.3 glTF exporter"},"scenes":[{"nodes":[5],"name":"blockbench_export"}],"scene":0,"nodes":[{"rotation":[0,-0.25881904510252074,0,0.9659258262890683],"name":"cone","mesh":0},{"translation":[0,0.2062500000000002,0],"name":"cylinder","mesh":1},{"translation":[0,0.04375,0],"name":"cylinder","mesh":2},{"rotation":[-0.7064337593572144,-0.030843563472505893,0.030843565721957997,0.7064337850685697],"translation":[0.012500000000000002,0.0625,-1.9949319973733282e-16],"name":"plane","mesh":3},{"rotation":[-0.7064337593572144,0.030843563472505893,-0.030843565721957997,0.7064337850685697],"translation":[-0.012500000000000002,0.0625,-1.9949319973733282e-16],"name":"plane","mesh":4},{"children":[0,1,2,3,4]}],"bufferViews":[{"buffer":0,"byteOffset":0,"byteLength":1056,"target":34962,"byteStride":12},{"buffer":0,"byteOffset":1056,"byteLength":1056,"target":34962,"byteStride":12},{"buffer":0,"byteOffset":2112,"byteLength":704,"target":34962,"byteStride":8},{"buffer":0,"byteOffset":2816,"byteLength":264,"target":34963},{"buffer":0,"byteOffset":3080,"byteLength":720,"target":34962,"byteStride":12},{"buffer":0,"byteOffset":3800,"byteLength":720,"target":34962,"byteStride":12},{"buffer":0,"byteOffset":4520,"byteLength":480,"target":34962,"byteStride":8},{"buffer":0,"byteOffset":5000,"byteLength":144,"target":34963},{"buffer":0,"byteOffset":5144,"byteLength":1872,"target":34962,"byteStride":12},{"buffer":0,"byteOffset":7016,"byteLength":1872,"target":34962,"byteStride":12},{"buffer":0,"byteOffset":8888,"byteLength":1248,"target":34962,"byteStride":8},{"buffer":0,"byteOffset":10136,"byteLength":432,"target":34963},{"buffer":0,"byteOffset":10568,"byteLength":48,"target":34962,"byteStride":12},{"buffer":0,"byteOffset":10616,"byteLength":48,"target":34962,"byteStride":12},{"buffer":0,"byteOffset":10664,"byteLength":32,"target":34962,"byteStride":8},{"buffer":0,"byteOffset":10696,"byteLength":12,"target":34963},{"buffer":0,"byteOffset":10708,"byteLength":48,"target":34962,"byteStride":12},{"buffer":0,"byteOffset":10756,"byteLength":48,"target":34962,"byteStride":12},{"buffer":0,"byteOffset":10804,"byteLength":32,"target":34962,"byteStride":8},{"buffer":0,"byteOffset":10836,"byteLength":12,"target":34963}],"buffers":[{"byteLength":10848,"uri":"data:application/octet-stream;base64,"}],"accessors":[{"bufferView":0,"componentType":5126,"count":88,"max":[0.0721687525510788,0.13124999403953552,0.0625],"min":[-0.0721687525510788,-0.03125,-0.0625],"type":"VEC3"},{"bufferView":1,"componentType":5126,"count":88,"max":[0.8401724696159363,1,0.9701424837112427],"min":[-0.8401724696159363,-0.707108199596405,-0.9701424837112427],"type":"VEC3"},{"bufferView":2,"componentType":5126,"count":88,"max":[0.65625,0.5625],"min":[0.19289530813694,0],"type":"VEC2"},{"bufferView":3,"componentType":5123,"count":132,"max":[87],"min":[0],"type":"SCALAR"},{"bufferView":4,"componentType":5126,"count":60,"max":[0.011084391735494137,1,0.00937500037252903],"min":[-0.011084391735494137,0,-0.00937500037252903],"type":"VEC3"},{"bufferView":5,"componentType":5126,"count":60,"max":[0.8608290553092957,1,1],"min":[-0.8608290553092957,-1,-1],"type":"VEC3"},{"bufferView":6,"componentType":5126,"count":60,"max":[0.6383562684059143,0.5],"min":[0,0],"type":"VEC2"},{"bufferView":7,"componentType":5123,"count":72,"max":[59],"min":[0],"type":"SCALAR"},{"bufferView":8,"componentType":5126,"count":156,"max":[0.06108439341187477,0.16249999403953552,0.04787658900022507],"min":[-0.06108439341187477,0.08749999850988388,-0.04787658900022507],"type":"VEC3"},{"bufferView":9,"componentType":5126,"count":156,"max":[0.8660253882408142,1,1],"min":[-0.8660253882408142,-1,-1],"type":"VEC3"},{"bufferView":10,"componentType":5126,"count":156,"max":[0.65625,0.625],"min":[0,0],"type":"VEC2"},{"bufferView":11,"componentType":5123,"count":216,"max":[155],"min":[0],"type":"SCALAR"},{"bufferView":12,"componentType":5126,"count":4,"max":[0.0062500000931322575,0,0.08124999701976776],"min":[-0.0062500000931322575,0,-0.08124999701976776],"type":"VEC3"},{"bufferView":13,"componentType":5126,"count":4,"max":[0,1,0],"min":[0,1,0],"type":"VEC3"},{"bufferView":14,"componentType":5126,"count":4,"max":[0.40625,0.09375],"min":[0.375,0],"type":"VEC2"},{"bufferView":15,"componentType":5123,"count":6,"max":[3],"min":[0],"type":"SCALAR"},{"bufferView":16,"componentType":5126,"count":4,"max":[0.0062500000931322575,0,0.08124999701976776],"min":[-0.0062500000931322575,0,-0.08124999701976776],"type":"VEC3"},{"bufferView":17,"componentType":5126,"count":4,"max":[0,1,0],"min":[0,1,0],"type":"VEC3"},{"bufferView":18,"componentType":5126,"count":4,"max":[0.40625,0.21875],"min":[0.375,0.125],"type":"VEC2"},{"bufferView":19,"componentType":5123,"count":6,"max":[3],"min":[0],"type":"SCALAR"}],"materials":[{"pbrMetallicRoughness":{"metallicFactor":0,"roughnessFactor":1,"baseColorTexture":{"index":0}},"alphaMode":"MASK","alphaCutoff":0.05,"doubleSided":true}],"textures":[{"sampler":0,"source":0,"name":"texture"}],"samplers":[{"magFilter":9728,"minFilter":9728,"wrapS":33071,"wrapT":33071}],"images":[{"mimeType":"image/png","uri":"data:image/png;base64,"}],"meshes":[{"primitives":[{"mode":4,"attributes":{"POSITION":0,"NORMAL":1,"TEXCOORD_0":2},"indices":3,"material":0}]},{"primitives":[{"mode":4,"attributes":{"POSITION":4,"NORMAL":5,"TEXCOORD_0":6},"indices":7,"material":0}]},{"primitives":[{"mode":4,"attributes":{"POSITION":8,"NORMAL":9,"TEXCOORD_0":10},"indices":11,"material":0}]},{"primitives":[{"mode":4,"attributes":{"POSITION":12,"NORMAL":13,"TEXCOORD_0":14},"indices":15,"material":0}]},{"primitives":[{"mode":4,"attributes":{"POSITION":16,"NORMAL":17,"TEXCOORD_0":18},"indices":19,"material":0}]}]}