{"asset":{"version":"2.0","generator":"Blockbench 4.12.3 glTF exporter"},"scenes":[{"nodes":[2],"name":"blockbench_export"}],"scene":0,"nodes":[{"translation":[0,0.34375,0],"name":"cuboid","mesh":0},{"name":"cone","mesh":1},{"children":[0,1]}],"bufferViews":[{"buffer":0,"byteOffset":0,"byteLength":5472,"target":34962,"byteStride":12},{"buffer":0,"byteOffset":5472,"byteLength":5472,"target":34962,"byteStride":12},{"buffer":0,"byteOffset":10944,"byteLength":3648,"target":34962,"byteStride":8},{"buffer":0,"byteOffset":14592,"byteLength":1368,"target":34963},{"buffer":0,"byteOffset":15960,"byteLength":864,"target":34962,"byteStride":12},{"buffer":0,"byteOffset":16824,"byteLength":864,"target":34962,"byteStride":12},{"buffer":0,"byteOffset":17688,"byteLength":576,"target":34962,"byteStride":8},{"buffer":0,"byteOffset":18264,"byteLength":144,"target":34963}],"buffers":[{"byteLength":18408,"uri":"data:application/octet-stream;base64,"}],"accessors":[{"bufferView":0,"componentType":5126,"count":456,"max":[0.6822811961174011,1.182281255722046,0.5625],"min":[-0.6822811961174011,-0.18576040863990784,-0.48124998807907104],"type":"VEC3"},{"bufferView":1,"componentType":5126,"count":456,"max":[1,1,1],"min":[-1,-1,-1],"type":"VEC3"},{"bufferView":2,"componentType":5126,"count":456,"max":[0.5703125,0.5490636825561523],"min":[0.00019531250291038305,0],"type":"VEC2"},{"bufferView":3,"componentType":5123,"count":684,"max":[455],"min":[0],"type":"SCALAR"},{"bufferView":4,"componentType":5126,"count":72,"max":[0.543749988079071,0.375,0.543749988079071],"min":[-0.543749988079071,0,-0.543749988079071],"type":"VEC3"},{"bufferView":5,"componentType":5126,"count":72,"max":[0.5677329301834106,0.8232128024101257,0.5677329301834106],"min":[-0.5677329301834106,-1,-0.5677329301834106],"type":"VEC3"},{"bufferView":6,"componentType":5126,"count":72,"max":[0.49471092224121094,0.5454879403114319],"min":[0.06388282030820847,0.0007812380790710449],"type":"VEC2"},{"bufferView":7,"componentType":5123,"count":72,"max":[71],"min":[0],"type":"SCALAR"}],"materials":[{"pbrMetallicRoughness":{"metallicFactor":0,"roughnessFactor":1,"baseColorTexture":{"index":0}},"alphaMode":"MASK","alphaCutoff":0.05,"doubleSided":true}],"textures":[{"sampler":0,"source":0,"name":"monitor"}],"samplers":[{"magFilter":9728,"minFilter":9728,"wrapS":33071,"wrapT":33071}],"images":[{"mimeType":"image/png","uri":"data:image/png;base64,"}],"meshes":[{"primitives":[{"mode":4,"attributes":{"POSITION":0,"NORMAL":1,"TEXCOORD_0":2},"indices":3,"material":0}]},{"primitives":[{"mode":4,"attributes":{"POSITION":4,"NORMAL":5,"TEXCOORD_0":6},"indices":7,"material":0}]}]}