{"asset":{"version":"2.0","generator":"Blockbench 4.12.3 glTF exporter"},"scenes":[{"nodes":[2],"name":"blockbench_export"}],"scene":0,"nodes":[{"rotation":[0,0.7071067811865475,0,0.7071067811865476],"translation":[0,0.0625,-0.375],"name":"cuboid","mesh":0},{"translation":[0,0.375,0.9656250000000002],"name":"cuboid","mesh":1},{"children":[0,1]}],"bufferViews":[{"buffer":0,"byteOffset":0,"byteLength":4032,"target":34962,"byteStride":12},{"buffer":0,"byteOffset":4032,"byteLength":4032,"target":34962,"byteStride":12},{"buffer":0,"byteOffset":8064,"byteLength":2688,"target":34962,"byteStride":8},{"buffer":0,"byteOffset":10752,"byteLength":1008,"target":34963},{"buffer":0,"byteOffset":11760,"byteLength":2304,"target":34962,"byteStride":12},{"buffer":0,"byteOffset":14064,"byteLength":2304,"target":34962,"byteStride":12},{"buffer":0,"byteOffset":16368,"byteLength":1536,"target":34962,"byteStride":8},{"buffer":0,"byteOffset":17904,"byteLength":576,"target":34963}],"buffers":[{"byteLength":18480,"uri":"data:application/octet-stream;base64,"}],"accessors":[{"bufferView":0,"componentType":5126,"count":336,"max":[0.5441941618919373,0.5586878657341003,0.5624956488609314],"min":[-1.625,-0.0625,-0.5624954104423523],"type":"VEC3"},{"bufferView":1,"componentType":5126,"count":336,"max":[1,1,1],"min":[-1,-1,-1],"type":"VEC3"},{"bufferView":2,"componentType":5126,"count":336,"max":[0.57016521692276,0.5546875],"min":[0,0],"type":"VEC2"},{"bufferView":3,"componentType":5123,"count":504,"max":[335],"min":[0],"type":"SCALAR"},{"bufferView":4,"componentType":5126,"count":192,"max":[0.37187498807907104,0.3218750059604645,0.21250000596046448],"min":[-0.37187498807907104,0.17812499403953552,-0.21250000596046448],"type":"VEC3"},{"bufferView":5,"componentType":5126,"count":192,"max":[1,1,1],"min":[-1,-1,-1],"type":"VEC3"},{"bufferView":6,"componentType":5126,"count":192,"max":[0.460719496011734,0.40047186613082886],"min":[0.07843046635389328,0.017496883869171143],"type":"VEC2"},{"bufferView":7,"componentType":5123,"count":288,"max":[191],"min":[0],"type":"SCALAR"}],"materials":[{"pbrMetallicRoughness":{"metallicFactor":0,"roughnessFactor":1,"baseColorTexture":{"index":0}},"alphaMode":"MASK","alphaCutoff":0.05,"doubleSided":true}],"textures":[{"sampler":0,"source":0,"name":"texture.png"}],"samplers":[{"magFilter":9728,"minFilter":9728,"wrapS":33071,"wrapT":33071}],"images":[{"mimeType":"image/png","uri":"data:image/png;base64,"}],"meshes":[{"primitives":[{"mode":4,"attributes":{"POSITION":0,"NORMAL":1,"TEXCOORD_0":2},"indices":3,"material":0}]},{"primitives":[{"mode":4,"attributes":{"POSITION":4,"NORMAL":5,"TEXCOORD_0":6},"indices":7,"material":0}]}]}